<svg width="68" height="12" viewBox="0 0 68 12" fill="none" xmlns="http://www.w3.org/2000/svg">
<path fill-rule="evenodd" clip-rule="evenodd" d="M5.78096 1.1507C5.81538 1.06004 5.90292 1 6.0007 1C6.09849 1 6.18603 1.06004 6.22045 1.1507L7.40888 4.48843H10.7652C10.8635 4.48842 10.9514 4.54907 10.9854 4.64042C11.0195 4.73176 10.9925 4.83445 10.9178 4.89773L8.1132 7.20103L9.28706 10.6941C9.31928 10.7901 9.2851 10.8958 9.20252 10.9554C9.11994 11.015 9.00793 11.0149 8.92551 10.955L6.00024 8.82896L3.07355 10.955C2.9911 11.0137 2.87996 11.0132 2.79804 10.9538C2.71612 10.8945 2.68198 10.7897 2.71341 10.6941L3.88727 7.20103L1.0822 4.89773C1.00749 4.83445 0.980495 4.73176 1.01455 4.64042C1.04861 4.54907 1.1365 4.48842 1.2348 4.48843H4.59159L5.78096 1.1507Z" fill="#FEC84B" stroke="#FEC84B"/>
<path fill-rule="evenodd" clip-rule="evenodd" d="M19.781 1.1507C19.8154 1.06004 19.9029 1 20.0007 1C20.0985 1 20.186 1.06004 20.2205 1.1507L21.4089 4.48843H24.7652C24.8635 4.48842 24.9514 4.54907 24.9854 4.64042C25.0195 4.73176 24.9925 4.83445 24.9178 4.89773L22.1132 7.20103L23.2871 10.6941C23.3193 10.7901 23.2851 10.8958 23.2025 10.9554C23.1199 11.015 23.0079 11.0149 22.9255 10.955L20.0002 8.82896L17.0735 10.955C16.9911 11.0137 16.88 11.0132 16.798 10.9538C16.7161 10.8945 16.682 10.7897 16.7134 10.6941L17.8873 7.20103L15.0822 4.89773C15.0075 4.83445 14.9805 4.73176 15.0146 4.64042C15.0486 4.54907 15.1365 4.48842 15.2348 4.48843H18.5916L19.781 1.1507Z" fill="#FEC84B" stroke="#FEC84B"/>
<path fill-rule="evenodd" clip-rule="evenodd" d="M33.781 1.1507C33.8154 1.06004 33.9029 1 34.0007 1C34.0985 1 34.186 1.06004 34.2205 1.1507L35.4089 4.48843H38.7652C38.8635 4.48842 38.9514 4.54907 38.9854 4.64042C39.0195 4.73176 38.9925 4.83445 38.9178 4.89773L36.1132 7.20103L37.2871 10.6941C37.3193 10.7901 37.2851 10.8958 37.2025 10.9554C37.1199 11.015 37.0079 11.0149 36.9255 10.955L34.0002 8.82896L31.0735 10.955C30.9911 11.0137 30.88 11.0132 30.798 10.9538C30.7161 10.8945 30.682 10.7897 30.7134 10.6941L31.8873 7.20103L29.0822 4.89773C29.0075 4.83445 28.9805 4.73176 29.0146 4.64042C29.0486 4.54907 29.1365 4.48842 29.2348 4.48843H32.5916L33.781 1.1507Z" fill="#FEC84B" stroke="#FEC84B"/>
<path fill-rule="evenodd" clip-rule="evenodd" d="M47.781 1.1507C47.8154 1.06004 47.9029 1 48.0007 1C48.0985 1 48.186 1.06004 48.2205 1.1507L49.4089 4.48843H52.7652C52.8635 4.48842 52.9514 4.54907 52.9854 4.64042C53.0195 4.73176 52.9925 4.83445 52.9178 4.89773L50.1132 7.20103L51.2871 10.6941C51.3193 10.7901 51.2851 10.8958 51.2025 10.9554C51.1199 11.015 51.0079 11.0149 50.9255 10.955L48.0002 8.82896L45.0735 10.955C44.9911 11.0137 44.88 11.0132 44.798 10.9538C44.7161 10.8945 44.682 10.7897 44.7134 10.6941L45.8873 7.20103L43.0822 4.89773C43.0075 4.83445 42.9805 4.73176 43.0146 4.64042C43.0486 4.54907 43.1365 4.48842 43.2348 4.48843H46.5916L47.781 1.1507Z" fill="#FEC84B" stroke="#FEC84B"/>
<path fill-rule="evenodd" clip-rule="evenodd" d="M61.781 1.1507C61.8154 1.06004 61.9029 1 62.0007 1C62.0985 1 62.186 1.06004 62.2205 1.1507L63.4089 4.48843H66.7652C66.8635 4.48842 66.9514 4.54907 66.9854 4.64042C67.0195 4.73176 66.9925 4.83445 66.9178 4.89773L64.1132 7.20103L65.2871 10.6941C65.3193 10.7901 65.2851 10.8958 65.2025 10.9554C65.1199 11.015 65.0079 11.0149 64.9255 10.955L62.0002 8.82896L59.0735 10.955C58.9911 11.0137 58.88 11.0132 58.798 10.9538C58.7161 10.8945 58.682 10.7897 58.7134 10.6941L59.8873 7.20103L57.0822 4.89773C57.0075 4.83445 56.9805 4.73176 57.0146 4.64042C57.0486 4.54907 57.1365 4.48842 57.2348 4.48843H60.5916L61.781 1.1507Z" fill="#FEC84B" stroke="#FEC84B"/>
</svg>
