<svg width="22" height="22" viewBox="0 0 22 22" fill="none" xmlns="http://www.w3.org/2000/svg">
<g id="Frame" clip-path="url(#clip0_508_5477)">
<path id="Vector" d="M16.3185 15.851C16.3185 15.851 16.3891 15.8006 16.5018 15.7144C18.1913 14.4082 19.25 12.5153 19.25 10.4078C19.25 6.479 15.5558 3.29083 11.0018 3.29083C6.446 3.29083 2.75 6.479 2.75 10.4078C2.75 14.3385 6.44417 17.4167 11 17.4167C11.3887 17.4167 12.0267 17.391 12.914 17.3397C14.0708 18.0913 15.7593 18.7083 17.237 18.7083C17.6944 18.7083 17.9098 18.3324 17.6165 17.9493C17.171 17.4029 16.5568 16.5275 16.3185 15.8501V15.851Z" stroke="#333461" stroke-width="2" stroke-linecap="round" stroke-linejoin="round"/>
<path id="Vector_2" d="M6.875 12.375C9.16667 14.6667 12.8333 14.6667 15.125 12.375" stroke="#20AD96" stroke-width="1.5" stroke-linecap="round" stroke-linejoin="round"/>
</g>
<defs>
<clipPath id="clip0_508_5477">
<rect width="22" height="22" fill="white"/>
</clipPath>
</defs>
</svg>
