<svg width="22" height="22" viewBox="0 0 22 22" fill="none" xmlns="http://www.w3.org/2000/svg">
<g id="Frame" clip-path="url(#clip0_508_5499)">
<path id="Vector" d="M19.0213 13.9027L16.0421 10.9236H9.09071C8.82734 10.9236 8.57475 10.8189 8.38852 10.6327C8.20228 10.4465 8.09766 10.1939 8.09766 9.93051V3.97218C8.09766 3.70881 8.20228 3.45622 8.38852 3.26999C8.57475 3.08375 8.82734 2.97913 9.09071 2.97913H18.0282C18.2916 2.97913 18.5442 3.08375 18.7304 3.26999C18.9166 3.45622 19.0213 3.70881 19.0213 3.97218V13.9027Z" stroke="#3F3A64" stroke-width="2" stroke-linecap="round" stroke-linejoin="round"/>
<path id="Vector_2" d="M12.0701 14.8958V16.8819C12.0701 17.1453 11.9655 17.3979 11.7792 17.5841C11.593 17.7704 11.3404 17.875 11.077 17.875H4.12565L1.14648 20.8542V10.9236C1.14648 10.6602 1.25111 10.4076 1.43734 10.2214C1.62358 10.0352 1.87617 9.93054 2.13954 9.93054H4.12565" stroke="#20AD96" stroke-width="2" stroke-linecap="round" stroke-linejoin="round"/>
</g>
<defs>
<clipPath id="clip0_508_5499">
<rect width="23.8333" height="23.8333" fill="white" transform="translate(-1.83301)"/>
</clipPath>
</defs>
</svg>
