<svg width="22" height="22" viewBox="0 0 22 22" fill="none" xmlns="http://www.w3.org/2000/svg">
<g id="Frame" clip-path="url(#clip0_508_5519)">
<path id="Vector" d="M9.16699 4.58333C9.16699 4.0971 9.36015 3.63079 9.70396 3.28697C10.0478 2.94315 10.5141 2.75 11.0003 2.75C11.4866 2.75 11.9529 2.94315 12.2967 3.28697C12.6405 3.63079 12.8337 4.0971 12.8337 4.58333C13.8864 5.08111 14.7838 5.85597 15.4297 6.82486C16.0756 7.79375 16.4457 8.92015 16.5003 10.0833V12.8333C16.5693 13.4032 16.7711 13.949 17.0896 14.4266C17.408 14.9043 17.8341 15.3005 18.3337 15.5833H3.66699C4.16652 15.3005 4.59265 14.9043 4.91108 14.4266C5.22951 13.949 5.43134 13.4032 5.50033 12.8333V10.0833C5.55492 8.92015 5.92502 7.79375 6.57095 6.82486C7.21687 5.85597 8.11428 5.08111 9.16699 4.58333" stroke="#333461" stroke-width="2" stroke-linecap="round" stroke-linejoin="round"/>
<path id="Vector_2" d="M8.25 15.5833V16.5C8.25 17.2294 8.53973 17.9288 9.05546 18.4446C9.57118 18.9603 10.2707 19.25 11 19.25C11.7293 19.25 12.4288 18.9603 12.9445 18.4446C13.4603 17.9288 13.75 17.2294 13.75 16.5V15.5833" stroke="#333461" stroke-width="2" stroke-linecap="round" stroke-linejoin="round"/>
<path id="Vector_3" d="M19.2496 6.16642C18.6484 4.85857 17.7753 3.69389 16.6885 2.75" stroke="#20AD96" stroke-width="2" stroke-linecap="round" stroke-linejoin="round"/>
<path id="Vector_4" d="M2.75 6.16642C3.35074 4.85874 4.22322 3.69407 5.30933 2.75" stroke="#20AD96" stroke-width="2" stroke-linecap="round" stroke-linejoin="round"/>
</g>
<defs>
<clipPath id="clip0_508_5519">
<rect width="22" height="22" fill="white"/>
</clipPath>
</defs>
</svg>
